HIERARCHY
ROOT Bip001_Pelvis
{
  OFFSET 34.4345 95.6767 -26.8758
  CHANNELS 6 Xposition Yposition Zposition Zrotation Xrotation Yrotation
  JOINT Bip001_Spine
  {
    OFFSET 1.4188e-005 10.2191 -0.0116013
    CHANNELS 3 Zrotation Xrotation Yrotation
    JOINT Bip001_L_Thigh
    {
      OFFSET 11.0458 -10.2192 0.0116197
      CHANNELS 3 Zrotation Xrotation Yrotation
      JOINT Bip001_L_Calf
      {
        OFFSET -0.707118 -44.0221 0.360014
        CHANNELS 3 Zrotation Xrotation Yrotation
        JOINT Bip001_L_Foot
        {
          OFFSET -0.651902 -40.5938 -3.56146
          CHANNELS 3 Zrotation Xrotation Yrotation
          JOINT Bip001_L_Toe0
          {
            OFFSET 0.0530839 -10.2181 13.1504
            CHANNELS 3 Zrotation Xrotation Yrotation
            End Site
            {
              OFFSET -1.02532e-005 0 7.55606
            }
          }
        }
      }
    }
    JOINT Bip001_R_Thigh
    {
      OFFSET -11.0458 -10.2191 0.0115893
      CHANNELS 3 Zrotation Xrotation Yrotation
      JOINT Bip001_R_Calf
      {
        OFFSET 0.706994 -44.0221 0.35984
        CHANNELS 3 Zrotation Xrotation Yrotation
        JOINT Bip001_R_Foot
        {
          OFFSET 0.651786 -40.5938 -3.5613
          CHANNELS 3 Zrotation Xrotation Yrotation
          JOINT Bip001_R_Toe0
          {
            OFFSET -0.0531479 -10.2181 13.1504
            CHANNELS 3 Zrotation Xrotation Yrotation
            End Site
            {
              OFFSET -1.02894e-005 0 7.55606
            }
          }
        }
      }
    }
    JOINT Bip001_Spine1
    {
      OFFSET 1.87041e-005 14.5736 1.08638
      CHANNELS 3 Zrotation Xrotation Yrotation
      JOINT Bip001_Spine2
      {
        OFFSET 2.24614e-005 14.5058 -1.69078
        CHANNELS 3 Zrotation Xrotation Yrotation
        JOINT Bip001_Neck
        {
          OFFSET 2.20278e-005 15.3945 -0.489414
          CHANNELS 3 Zrotation Xrotation Yrotation
          JOINT Bip001_L_Clavicle
          {
            OFFSET 6.06036 -0.000579998 0.00836775
            CHANNELS 3 Zrotation Xrotation Yrotation
            JOINT Bip001_L_UpperArm
            {
              OFFSET 11.5509 -0.0600302 0.00193952
              CHANNELS 3 Zrotation Xrotation Yrotation
              JOINT Bip001_L_Forearm
              {
                OFFSET 25.9523 0.0806089 -2.15551
                CHANNELS 3 Zrotation Xrotation Yrotation
                JOINT Bip001_L_Hand
                {
                  OFFSET 32.2475 0.153767 1.63968
                  CHANNELS 3 Zrotation Xrotation Yrotation
                  JOINT Bip001_L_Finger0
                  {
                    OFFSET 6.04639 -2.20976 5.90322
                    CHANNELS 3 Zrotation Xrotation Yrotation
                    End Site
                    {
                      OFFSET 4.22375 -1.43895 0.606485
                    }
                  }
                  JOINT Bip001_L_Finger1
                  {
                    OFFSET 11.0826 -0.704819 -0.198153
                    CHANNELS 3 Zrotation Xrotation Yrotation
                    End Site
                    {
                      OFFSET 6.20027 -0.397518 -0.0787166
                    }
                  }
                }
              }
            }
          }
          JOINT Bip001_R_Clavicle
          {
            OFFSET -6.06037 -0.000563197 0.00835105
            CHANNELS 3 Zrotation Xrotation Yrotation
            JOINT Bip001_R_UpperArm
            {
              OFFSET -11.5509 -0.0599978 0.00190698
              CHANNELS 3 Zrotation Xrotation Yrotation
              JOINT Bip001_R_Forearm
              {
                OFFSET -25.9523 0.0806822 -2.15589
                CHANNELS 3 Zrotation Xrotation Yrotation
                JOINT Bip001_R_Hand
                {
                  OFFSET -32.2475 0.153859 1.63989
                  CHANNELS 3 Zrotation Xrotation Yrotation
                  JOINT Bip001_R_Finger0
                  {
                    OFFSET -6.04641 -2.20976 5.90317
                    CHANNELS 3 Zrotation Xrotation Yrotation
                    End Site
                    {
                      OFFSET -4.22376 -1.43895 0.60647
                    }
                  }
                  JOINT Bip001_R_Finger1
                  {
                    OFFSET -11.0826 -0.704794 -0.198182
                    CHANNELS 3 Zrotation Xrotation Yrotation
                    End Site
                    {
                      OFFSET -6.20028 -0.397504 -0.0787333
                    }
                  }
                }
              }
            }
          }
          JOINT Bip001_Head
          {
            OFFSET 1.09673e-005 11.2744 2.05948
            CHANNELS 3 Zrotation Xrotation Yrotation
            End Site
            {
              OFFSET 2.89576e-005 20.8808 -2.77728e-005
            }
          }
        }
      }
    }
  }
}
MOTION
Frames:	16
Frame Time:	0.04
33.9209 96.0223 -28.1278 -1.30915 1.82748 10.2448 -0.520229 1.43906 1.84367 6.55491 -7.29698 2.59659 -1.28925 9.33098 -12.6096 2.93552 -4.70864 -0.00789992 0.726684 -3.86316 -0.367798 -1.23275 -1.33699 -3.15211 0.242155 6.63483 -0.995961 -7.48264 -6.27236 -4.80788 2.54166 -8.39962 2.45778 -1.08459 2.86073 3.70208 -1.08579 2.86073 3.70196 2.6103 -13.0249 -8.73089 -28.0924 11.2025 5.33261 -52.0152 40.4759 1.88378 14.9217 -2.04709 -23.4101 8.45091 1.62898 -3.1705 -0 0 3.18055e-015 0 0 -0 -7.16681 13.8901 34.0617 43.742 -24.6156 68.1533 -44.1818 -8.00583 61.1784 -26.0437 13.6086 3.55935 1.98785e-016 3.18055e-015 1.98785e-016 7.95139e-016 0 -1.98785e-016 -2.78498 -3.85377 -7.33293 
33.8955 96.0234 -28.0582 -1.1985 1.82933 10.0446 -0.527968 1.47527 1.91308 6.4919 -7.14613 2.90425 -1.26746 9.15937 -12.7878 2.8288 -4.7272 -0.00460273 0.673324 -3.78075 -0.335443 -1.31705 -1.40982 -3.15684 0.228537 6.77937 -0.999093 -7.45856 -6.39204 -4.74243 2.53433 -8.38578 2.45852 -1.10143 2.93215 3.84151 -1.10116 2.93201 3.84153 2.52593 -13.4287 -8.75092 -27.897 11.6264 5.40316 -52.4854 39.8657 2.06948 14.8988 -2.34884 -23.1518 8.31096 1.61813 -2.95036 4.77083e-015 -6.36111e-015 -0 7.95139e-015 0 3.18055e-015 -9.15784 13.4415 34.7215 29.2503 -21.4657 65.3681 -38.6837 -10.1925 48.2008 -28.3405 15.116 3.57528 7.95139e-016 9.54166e-015 -0 8.82782e-032 6.36111e-015 -7.95139e-016 -2.74823 -3.51366 -7.37238 
33.8256 96.0399 -28.0396 -1.2765 1.93076 9.78058 -0.546565 1.46009 2.05866 6.60949 -7.21214 2.55725 -1.28475 9.16625 -12.2652 2.60543 -4.83795 -0.000518142 0.63257 -3.66055 -0.29926 -1.18357 -1.46507 -3.26817 0.162913 6.61574 -0.949895 -7.37147 -6.33734 -4.55048 2.5179 -8.32024 2.42122 -1.14582 2.89952 4.13316 -1.14582 2.89953 4.13317 2.89669 -13.6496 -9.06315 -28.253 11.736 5.33332 -52.4279 39.6469 2.23827 14.7463 -2.33749 -22.892 7.74927 1.7411 -2.84084 -9.54166e-015 3.18055e-015 3.18055e-015 -7.95139e-015 6.36111e-015 6.36111e-015 -10.7939 12.9835 34.6281 19.8903 -19.2238 65.3626 -44.894 -9.22967 38.7631 -29.5811 13.2938 4.77537 6.95746e-016 -1.27222e-014 -7.95139e-016 1.49088e-015 -1.59028e-014 -9.93923e-017 -2.9042 -3.22494 -7.55469 
33.7368 96.0339 -28.0503 -1.44266 2.04383 9.62009 -0.557414 1.41191 2.173 6.79356 -7.40091 2.37734 -1.23598 9.3717 -12.0033 2.43489 -5.03667 0.00285942 0.593735 -3.58475 -0.276636 -1.02742 -1.5301 -3.27677 0.258946 6.46908 -0.757889 -7.40864 -6.26244 -4.67177 2.48567 -8.23682 2.40855 -1.17018 2.80172 4.35681 -1.16967 2.80166 4.35915 3.98099 -13.186 -9.45823 -29.2188 11.1146 4.79392 -52.3031 39.794 2.58222 14.2647 -2.77774 -22.6613 7.74629 1.68548 -2.73759 -3.18055e-015 -9.54166e-015 3.18055e-015 -3.18055e-015 -3.18056e-015 3.18055e-015 -12.2691 11.9925 33.5191 16.2403 -19.2316 65.4464 -39.6421 -13.3684 37.5362 -33.2553 14.9116 5.15325 -2.26118e-015 -3.18055e-015 -1.21134e-015 -6.58474e-016 0 -1.68346e-015 -3.82284 -3.48891 -7.5923 
33.7058 96.0248 -27.9674 -1.30472 1.80669 9.30081 -0.521189 1.41129 2.17636 6.67745 -6.93026 2.99593 -1.10552 9.20363 -12.3462 2.43262 -5.01071 0.00841278 0.625273 -3.64025 -0.296626 -1.16957 -1.31735 -3.37053 0.272095 6.60671 -0.658697 -7.36625 -6.45533 -4.39363 2.46911 -8.21137 2.42966 -1.09616 2.80178 4.36855 -1.09546 2.80161 4.36803 4.1087 -12.5678 -9.46218 -29.2634 10.5767 4.41519 -52.6643 40.0571 2.98206 13.9394 -2.89997 -22.3939 7.8349 1.73111 -2.80106 -4.77083e-015 -3.18055e-015 6.36111e-015 -6.36111e-015 -6.36111e-015 6.36111e-015 -14.162 10.4976 31.9804 22.2469 -20.1758 70.5579 -37.7254 -7.40169 39.6865 -32.3685 14.7311 4.37607 -3.77691e-015 3.18055e-015 -5.66536e-015 -3.37934e-015 9.54167e-015 -7.45442e-015 -4.1364 -3.65617 -7.46459 
33.6216 96.027 -27.9195 -1.22868 1.59313 8.88508 -0.522558 1.42676 2.12862 6.73385 -6.61541 3.66465 -1.00654 9.24024 -12.4482 2.01318 -5.2701 0.0116892 0.553211 -3.41384 -0.303654 -1.16975 -1.24175 -3.21941 0.255241 6.80057 -0.606302 -7.31989 -6.58584 -4.17187 2.44765 -8.12823 2.38171 -1.08724 2.83146 4.27195 -1.08937 2.83169 4.27198 4.16149 -12.2706 -9.21789 -29.3012 10.3603 4.23987 -52.6717 40.0243 3.02603 14.0849 -2.04537 -22.2232 7.35724 1.67817 -2.80016 -1.59028e-015 9.54166e-015 -3.18055e-015 -1.59028e-015 9.54167e-015 -3.18055e-015 -15.1648 9.80215 31.306 20.9779 -18.6228 71.9144 -37.9947 -7.4769 37.6668 -33.153 16.7124 3.95177 2.18663e-015 -3.18055e-015 1.39149e-015 3.97569e-016 3.18056e-015 -2.88238e-015 -4.02815 -3.62281 -7.26009 
33.5206 96.0219 -27.9101 -1.11634 1.38931 8.48745 -0.525828 1.43361 2.03876 6.7224 -6.27555 3.82294 -0.917605 9.16842 -12.1577 1.66828 -5.39401 0.014684 0.480149 -3.29729 -0.192062 -1.21262 -1.26514 -3.21527 0.237137 7.1691 -0.569541 -7.22891 -6.8208 -3.78159 2.42293 -8.05421 2.36031 -1.10624 2.84748 4.09599 -1.10584 2.84745 4.09435 4.23076 -11.8474 -8.89518 -29.1346 9.99056 4.27598 -52.8753 40.2792 2.8708 14.166 -1.86428 -22.1094 6.84673 1.69794 -2.62045 6.36111e-015 3.18055e-015 3.18055e-015 4.77083e-015 6.36111e-015 3.18055e-015 -14.6594 9.66536 32.1195 22.8092 -17.132 71.4701 -38.1818 -7.79874 39.979 -32.4296 17.0138 3.11894 7.95139e-016 0 1.19271e-015 -7.95139e-016 -3.18056e-015 -1.59028e-015 -3.8534 -3.82883 -6.97269 
33.451 96.0105 -27.8722 -0.916953 1.15156 8.06441 -0.501949 1.45616 2.03169 6.47955 -5.72719 3.8736 -0.77183 8.74059 -11.9613 2.15604 -4.97957 0.0172853 0.650884 -3.6736 -0.305823 -1.46699 -1.17985 -3.51261 0.315624 7.46218 -0.511847 -7.1225 -7.18719 -3.20487 2.40003 -7.99335 2.35059 -1.05575 2.89355 4.07803 -1.05575 2.89355 4.07803 4.20243 -11.6758 -8.74624 -29.1738 9.84175 4.29554 -53.193 40.5557 2.80965 14.2644 -2.09774 -22.2796 6.85296 1.6868 -2.62303 -4.77083e-015 6.36111e-015 -3.18055e-015 -1.59028e-015 3.18056e-015 -3.18055e-015 -12.9455 10.2582 32.5973 26.567 -15.0696 70.5633 -38.7958 -8.58122 45.3183 -30.6454 15.7353 3.46694 2.38542e-015 0 2.38542e-015 1.59028e-015 -3.18056e-015 7.95139e-016 -4.00135 -3.82315 -6.80305 
33.3459 95.9982 -27.9219 -0.901497 1.18546 7.80086 -0.446482 1.42932 1.97559 6.4484 -5.69308 3.68391 -0.659233 8.72302 -11.5101 0.909178 -5.38608 0.019304 0.262767 -3.19176 0.0931749 -1.52828 -1.32532 -3.51051 0.346923 7.60971 -0.488232 -7.0999 -7.33288 -2.94996 2.37033 -7.93932 2.38658 -0.944041 2.84227 3.96426 -0.943284 2.84233 3.96425 4.33537 -11.5245 -8.566 -29.3444 9.75287 4.10441 -53.4515 40.2453 2.88447 14.3533 -1.85846 -22.787 7.28778 1.54884 -3.02734 -4.77083e-015 -9.54166e-015 6.36111e-015 -1.59028e-015 -6.36111e-015 3.18055e-015 -9.9564 11.4753 32.9648 30.6274 -13.6708 68.142 -37.5563 -8.88702 53.95 -29.572 14.8363 2.65205 4.77083e-015 9.54166e-015 7.95139e-016 2.38542e-015 3.18056e-015 -1.59028e-015 -4.30478 -3.94575 -6.54851 
33.2369 95.9928 -27.9561 -0.852616 1.17593 7.48876 -0.415861 1.41596 1.81135 6.50078 -5.58185 3.87931 -0.779346 8.66738 -11.2658 1.17996 -5.22505 0.0200999 0.347416 -3.32871 0.0128714 -1.55137 -1.45424 -3.10202 0.336758 7.7869 -0.50344 -7.07619 -7.43754 -2.86485 2.36514 -7.88176 2.31954 -0.869236 2.81258 3.63375 -0.872654 2.81252 3.63381 4.07846 -11.281 -8.05017 -28.842 9.67037 4.14218 -53.9375 39.9946 3.03499 14.6311 -1.61274 -23.2688 7.50652 1.21464 -3.53353 -4.77083e-015 -6.36111e-015 6.36111e-015 -3.18055e-015 -6.36111e-015 3.18055e-015 -6.45462 12.7599 33.2804 34.8002 -13.0986 64.2137 -37.9646 -6.7467 63.1796 -29.4868 13.1311 2.48709 -0 0 1.59028e-015 -7.95139e-016 0 -0 -4.06017 -4.08249 -6.1521 
33.2351 95.9866 -27.96 -0.536384 1.05047 7.24124 -0.44246 1.41363 1.60999 6.16562 -5.14914 4.21378 -0.662024 8.25609 -11.1865 1.76614 -4.84452 0.00706668 0.565056 -3.56293 -0.171675 -1.87926 -1.50396 -3.01391 0.384561 8.19109 -0.448981 -7.03552 -7.75385 -2.63146 2.35008 -7.85733 2.32215 -0.924471 2.81447 3.23229 -0.924468 2.81429 3.23228 3.87892 -10.6186 -7.50739 -28.3193 9.24699 3.85241 -54.2168 39.5812 3.15358 14.7376 -1.2195 -23.4995 7.59524 0.97292 -3.80023 -7.95139e-015 3.18055e-015 -3.18055e-015 -4.77083e-015 0 -6.36111e-015 -2.46221 13.8412 33.8057 39.1871 -13.8088 58.5477 -38.7376 -4.10863 73.3935 -29.1773 11.1262 2.06979 7.95139e-016 -1.27222e-014 7.95139e-016 -2.38542e-015 -6.36111e-015 7.95139e-016 -3.72891 -4.55262 -5.74255 
33.2299 95.9849 -27.978 -0.300489 0.985513 6.92868 -0.449424 1.40567 1.44566 5.99239 -4.81239 4.25236 -0.687201 7.93817 -10.7526 0.919971 -4.9821 0.014744 0.308081 -3.18759 0.05906 -2.14019 -1.64647 -2.93173 0.398679 8.59434 -0.405815 -6.98236 -8.01109 -2.34174 2.3473 -7.84113 2.31817 -0.939943 2.79672 2.9037 -0.938447 2.79673 2.90382 3.74377 -9.92015 -7.04867 -28.0514 8.68105 3.76883 -54.2087 39.5208 3.00078 14.8201 -0.83888 -23.3872 7.62379 0.923546 -3.99026 -1.59028e-015 0 -3.18055e-015 0 0 -0 1.86309 14.9768 34.0444 42.7221 -16.5052 51.1897 -39.4141 -0.838667 84.4286 -29.5314 9.1361 1.99664 -1.59028e-015 6.36111e-015 -4.77083e-015 -5.56597e-015 3.18056e-015 -3.18055e-015 -3.46294 -5.09145 -5.38714 
33.2403 95.9853 -27.9548 -0.0251681 0.788545 6.66573 -0.447475 1.40899 1.37879 5.70574 -4.34814 4.10631 -0.716048 7.56689 -10.2677 1.49296 -4.65147 0.00543228 0.527029 -3.47583 -0.180748 -2.4406 -1.59774 -3.00796 0.406385 8.9303 -0.355633 -6.94589 -8.27301 -2.08815 2.34538 -7.8365 2.31679 -0.929161 2.80674 2.7698 -0.929162 2.80674 2.76981 3.85056 -9.23189 -6.90505 -28.2296 8.11242 3.32352 -54.3788 39.2274 3.15014 14.9231 -0.675865 -23.2266 7.53932 0.703141 -4.04174 6.36111e-015 9.54166e-015 -0 4.77083e-015 1.27222e-014 -0 5.54516 15.6948 33.1764 43.3093 -18.6217 41.5766 -39.8268 1.07533 94.0151 -30.4313 7.59692 1.55878 -1.59028e-015 -3.18055e-015 -0 -0 -9.54167e-015 -0 -3.65502 -5.61867 -5.20186 
33.268 95.9724 -27.9106 0.274233 0.593392 6.40214 -0.460216 1.47635 1.26005 5.3631 -3.91363 4.58135 -0.612263 7.19496 -10.4258 2.0666 -4.26119 -0.00284646 0.77711 -3.73979 -0.335754 -2.76398 -1.62695 -3.08088 0.403971 9.3386 -0.322624 -6.84964 -8.58888 -1.71033 2.34052 -7.83444 2.31614 -0.952319 2.94214 2.53322 -0.954335 2.94215 2.53303 3.60496 -9.06402 -6.56521 -27.934 8.02587 3.40375 -54.3813 38.9396 2.7471 14.7587 -0.462994 -23.2194 7.91309 0.958319 -3.92139 4.77083e-015 0 -0 6.36111e-015 0 -3.18055e-015 9.06322 16.6793 32.1755 39.4641 -17.2633 29.219 -39.3091 -0.464544 99.1261 -30.9851 6.62337 2.13497 1.27222e-014 0 -3.18055e-015 9.54166e-015 0 -0 -3.43804 -5.91253 -4.9724 
33.2148 95.9598 -27.9091 0.313328 0.596419 6.186 -0.440131 1.50154 1.15499 5.37883 -3.88718 4.5829 -0.696317 7.19121 -10.1398 1.89407 -4.31953 -0.00295457 0.678966 -3.70622 -0.297308 -2.80691 -1.74989 -2.8382 0.418009 9.46322 -0.328394 -6.86425 -8.69792 -1.66417 2.3364 -7.83257 2.32343 -0.911047 2.99385 2.32275 -0.909845 2.99385 2.3227 3.39988 -8.84996 -6.23245 -27.6771 7.91533 3.36378 -54.3304 38.5628 2.5669 14.4322 -0.479926 -23.6283 8.0922 1.51697 -3.6084 3.18055e-015 3.18055e-015 -0 4.77083e-015 6.36111e-015 -3.18055e-015 12.5252 17.4898 31.0398 34.9838 -14.0497 16.7679 -38.0487 -1.10676 101.428 -31.0682 6.47418 2.64886 1.59028e-015 -3.18055e-015 6.36111e-015 -3.18055e-015 -3.18056e-015 3.18055e-015 -3.27588 -6.41176 -4.74157 
33.2012 95.9556 -27.903 0.402115 0.552087 5.98456 -0.428617 1.53714 1.0701 5.29332 -3.75946 4.65661 -0.690772 7.07609 -9.97384 1.73046 -4.3595 -0.00301567 0.601018 -3.61931 -0.2179 -2.92688 -1.80792 -2.81395 0.429966 9.56667 -0.322237 -6.81333 -8.81845 -1.46833 2.33231 -7.83069 2.33937 -0.882437 3.06602 2.15178 -0.886159 3.06602 2.15226 3.37057 -8.73105 -5.94832 -27.4599 7.91921 3.16815 -54.7321 38.3803 2.55013 14.4419 -0.413706 -23.4621 8.22911 1.50551 -3.80476 6.36111e-015 9.54166e-015 -3.18055e-015 7.95139e-015 9.54167e-015 -0 15.108 17.9466 29.617 32.874 -9.70651 6.29614 -38.0064 -0.478525 100.852 -29.0269 6.10393 3.31766 -0 0 6.36111e-015 -3.18055e-015 4.77083e-015 6.36111e-015 -3.27998 -6.69913 -4.47616 
